# xmcd CD database file
#
# Track frame offsets:
#	150
#	22787
#	49524
#	74386
#	98789
#	131104
#	148857
#	177277
#	198517
#	220255
#
# Disc length: 3335 seconds
#
# Revision: 0
# Processed by: cddbd v1.5.2PL0 Copyright (c) Steve Scherf et al.
# Submitted via: CDex 1.70beta2
#
DISCID=910d050a
DTITLE=Jon Mayer - The Usual Suspects
DYEAR=1900
DGENRE=Jazz
TTITLE0=Soul Eyes
TTITLE1=Never Let Me Go
TTITLE2=Red Top
TTITLE3=When I Fall In Love
TTITLE4=Round Up The Usual Suspects
TTITLE5=Because I Love You
TTITLE6=This Is All I Ask
TTITLE7=Speak Low
TTITLE8=Nica's Tempo
TTITLE9=This Heart Of Mine
EXTD=
EXTT0=
EXTT1=
EXTT2=
EXTT3=
EXTT4=
EXTT5=
EXTT6=
EXTT7=
EXTT8=
EXTT9=
PLAYORDER=
